<?xml version="1.0" encoding="utf-8"?>
<!-- Generator: Adobe Illustrator 25.0.1, SVG Export Plug-In . SVG Version: 6.00 Build 0)  -->
<svg version="1.0" id="katman_1" xmlns="http://www.w3.org/2000/svg" x="0px" y="0px"
	 viewBox="0 0 800 600" style="enable-background:new 0 0 800 600;" xml:space="preserve">
<style type="text/css">
	.st0{fill-rule:evenodd;clip-rule:evenodd;fill:#00ACD7;}
	.st1{fill:#00ACD7;}
</style>
	<g>
	<path class="st0" d="M141.6,255.4c-1.2,0-1.5-0.6-0.9-1.5l6.2-8c0.6-0.9,2.1-1.5,3.2-1.5h105.4c1.2,0,1.5,0.9,0.9,1.8l-5,7.7
		c-0.6,0.9-2.1,1.8-3,1.8L141.6,255.4z"/>
		<path class="st0" d="M97,282.6c-1.2,0-1.5-0.6-0.9-1.5l6.2-8c0.6-0.9,2.1-1.5,3.2-1.5h134.7c1.2,0,1.8,0.9,1.5,1.8l-2.4,7.1
		c-0.3,1.2-1.5,1.8-2.7,1.8L97,282.6z"/>
		<path class="st0" d="M168.5,309.8c-1.2,0-1.5-0.9-0.9-1.8l4.1-7.4c0.6-0.9,1.8-1.8,3-1.8h59.1c1.2,0,1.8,0.9,1.8,2.1l-0.6,7.1
		c0,1.2-1.2,2.1-2.1,2.1L168.5,309.8z"/>
		<g transform="translate(55)">
		<path class="st0" d="M420.1,250.1c-18.6,4.7-31.3,8.3-49.6,13c-4.4,1.2-4.7,1.5-8.6-3c-4.4-5-7.7-8.3-13.9-11.2
			c-18.6-9.2-36.6-6.5-53.5,4.4c-20.1,13-30.4,32.2-30.1,56.1c0.3,23.6,16.5,43.1,39.9,46.4c20.1,2.7,36.9-4.4,50.2-19.5
			c2.7-3.2,5-6.8,8-10.9c-10.6,0-23.9,0-57,0c-6.2,0-7.7-3.8-5.6-8.9c3.8-9.2,10.9-24.5,15.1-32.2c0.9-1.8,3-4.7,7.4-4.7h107.5
			c-0.6,8-0.6,16-1.8,23.9c-3.2,21.3-11.2,40.8-24.2,57.9c-21.3,28.1-49,45.5-84.2,50.2c-28.9,3.8-55.8-1.8-79.5-19.5
			c-21.9-16.5-34.3-38.4-37.5-65.6c-3.8-32.2,5.6-61.1,25.1-86.5c21-27.5,48.7-44.9,82.7-51.1c27.8-5,54.3-1.8,78.3,14.5
			c15.7,10.3,26.9,24.5,34.3,41.6C424.8,247.7,423.6,249.2,420.1,250.1z"/>
			<path class="st1" d="M517.8,413.4c-26.9-0.6-51.4-8.3-72.1-26c-17.4-15.1-28.4-34.3-31.9-57c-5.3-33.4,3.8-62.9,23.9-89.2
			c21.6-28.4,47.6-43.1,82.7-49.3c30.1-5.3,58.5-2.4,84.2,15.1c23.3,15.9,37.8,37.5,41.6,65.9c5,39.9-6.5,72.4-34,100.1
			c-19.5,19.8-43.4,32.2-70.9,37.8C533.5,412.3,525.5,412.6,517.8,413.4z M588.1,294.1c-0.3-3.8-0.3-6.8-0.9-9.7
			c-5.3-29.2-32.2-45.8-60.3-39.3c-27.5,6.2-45.2,23.6-51.7,51.4c-5.3,23,5.9,46.4,27.2,55.8c16.2,7.1,32.5,6.2,48.1-1.8
			C573.9,338.4,586.6,319.5,588.1,294.1L588.1,294.1z"/>
	</g>
</g>
</svg>
